<?xml version="1.0" encoding="UTF-8"?>
<!-- 
  BIBLIOTECA DE ASSETS - Sistema de Gestão de Pedidos v2.0
  Ícones SVG otimizados para uso em componentes React
  Padrão: 24x24px, stroke-width="2", cores configuráveis via CSS
-->

<svg xmlns="http://www.w3.org/2000/svg" viewBox="0 0 800 600" style="display: none;">
  
  <!-- ÍCONES PRINCIPAIS DE NAVEGAÇÃO -->
  
  <!-- Dashboard Icon -->
  <g id="dashboard-icon">
    <rect x="3" y="3" width="7" height="7" rx="1" fill="none" stroke="currentColor" stroke-width="2"/>
    <rect x="14" y="3" width="7" height="7" rx="1" fill="none" stroke="currentColor" stroke-width="2"/>
    <rect x="14" y="14" width="7" height="7" rx="1" fill="none" stroke="currentColor" stroke-width="2"/>
    <rect x="3" y="14" width="7" height="7" rx="1" fill="none" stroke="currentColor" stroke-width="2"/>
  </g>
  
  <!-- Orders Icon -->
  <g id="orders-icon">
    <path d="M6 2h12a2 2 0 0 1 2 2v16a2 2 0 0 1-2 2H6a2 2 0 0 1-2-2V4a2 2 0 0 1 2-2z" fill="none" stroke="currentColor" stroke-width="2"/>
    <path d="M8 7h8M8 11h8M8 15h8" stroke="currentColor" stroke-width="2" stroke-linecap="round"/>
  </g>
  
  <!-- Clients Icon -->
  <g id="clients-icon">
    <path d="M20 21v-2a4 4 0 0 0-4-4H8a4 4 0 0 0-4 4v2" fill="none" stroke="currentColor" stroke-width="2" stroke-linecap="round"/>
    <circle cx="12" cy="7" r="4" fill="none" stroke="currentColor" stroke-width="2"/>
  </g>
  
  <!-- Products Icon -->
  <g id="products-icon">
    <path d="M21 16V8a2 2 0 0 0-1-1.73l-7-4a2 2 0 0 0-2 0l-7 4A2 2 0 0 0 3 8v8a2 2 0 0 0 1 1.73l7 4a2 2 0 0 0 2 0l7-4A2 2 0 0 0 21 16z" fill="none" stroke="currentColor" stroke-width="2"/>
    <polyline points="3.27,6.96 12,12.01 20.73,6.96" fill="none" stroke="currentColor" stroke-width="2" stroke-linecap="round"/>
    <line x1="12" y1="22.08" x2="12" y2="12" stroke="currentColor" stroke-width="2" stroke-linecap="round"/>
  </g>
  
  <!-- Payments Icon -->
  <g id="payments-icon">
    <rect x="1" y="4" width="22" height="16" rx="2" ry="2" fill="none" stroke="currentColor" stroke-width="2"/>
    <line x1="1" y1="10" x2="23" y2="10" stroke="currentColor" stroke-width="2"/>
  </g>
  
  <!-- Settings Icon -->
  <g id="settings-icon">
    <circle cx="12" cy="12" r="3" fill="none" stroke="currentColor" stroke-width="2"/>
    <path d="M19.4 15a1.65 1.65 0 0 0 .33 1.82l.06.06a2 2 0 0 1 0 2.83 2 2 0 0 1-2.83 0l-.06-.06a1.65 1.65 0 0 0-1.82-.33 1.65 1.65 0 0 0-1 1.51V21a2 2 0 0 1-2 2 2 2 0 0 1-2-2v-.09A1.65 1.65 0 0 0 9 19.4a1.65 1.65 0 0 0-1.82.33l-.06.06a2 2 0 0 1-2.83 0 2 2 0 0 1 0-2.83l.06-.06a1.65 1.65 0 0 0 .33-1.82 1.65 1.65 0 0 0-1.51-1H3a2 2 0 0 1-2-2 2 2 0 0 1 2-2h.09A1.65 1.65 0 0 0 4.6 9a1.65 1.65 0 0 0-.33-1.82l-.06-.06a2 2 0 0 1 0-2.83 2 2 0 0 1 2.83 0l.06.06a1.65 1.65 0 0 0 1.82.33H9a1.65 1.65 0 0 0 1 1.51V3a2 2 0 0 1 2-2 2 2 0 0 1 2 2v.09a1.65 1.65 0 0 0 1 1.51 1.65 1.65 0 0 0 1.82-.33l.06-.06a2 2 0 0 1 2.83 0 2 2 0 0 1 0 2.83l-.06.06a1.65 1.65 0 0 0-.33 1.82V9a1.65 1.65 0 0 0 1.51 1H21a2 2 0 0 1 2 2 2 2 0 0 1-2 2h-.09a1.65 1.65 0 0 0-1.51 1z" fill="none" stroke="currentColor" stroke-width="2"/>
  </g>
  
  <!-- ÍCONES DE AÇÕES -->
  
  <!-- Search Icon -->
  <g id="search-icon">
    <circle cx="11" cy="11" r="8" fill="none" stroke="currentColor" stroke-width="2"/>
    <line x1="21" y1="21" x2="16.65" y2="16.65" stroke="currentColor" stroke-width="2" stroke-linecap="round"/>
  </g>
  
  <!-- Filter Icon -->
  <g id="filter-icon">
    <polygon points="22,3 2,3 10,12.46 10,19 14,21 14,12.46" fill="none" stroke="currentColor" stroke-width="2" stroke-linecap="round"/>
  </g>
  
  <!-- Plus Icon -->
  <g id="plus-icon">
    <line x1="12" y1="5" x2="12" y2="19" stroke="currentColor" stroke-width="2" stroke-linecap="round"/>
    <line x1="5" y1="12" x2="19" y2="12" stroke="currentColor" stroke-width="2" stroke-linecap="round"/>
  </g>
  
  <!-- Edit Icon -->
  <g id="edit-icon">
    <path d="M11 4H4a2 2 0 0 0-2 2v14a2 2 0 0 0 2 2h14a2 2 0 0 0 2-2v-7" fill="none" stroke="currentColor" stroke-width="2" stroke-linecap="round"/>
    <path d="M18.5 2.5a2.12 2.12 0 0 1 3 3L12 15l-4 1 1-4 9.5-9.5z" fill="none" stroke="currentColor" stroke-width="2" stroke-linecap="round"/>
  </g>
  
  <!-- Delete Icon -->
  <g id="delete-icon">
    <polyline points="3,6 5,6 21,6" fill="none" stroke="currentColor" stroke-width="2" stroke-linecap="round"/>
    <path d="M19 6v14a2 2 0 0 1-2 2H7a2 2 0 0 1-2-2V6m3 0V4a2 2 0 0 1 2-2h4a2 2 0 0 1 2 2v2" fill="none" stroke="currentColor" stroke-width="2" stroke-linecap="round"/>
  </g>
  
  <!-- Eye Icon -->
  <g id="eye-icon">
    <path d="M1 12s4-8 11-8 11 8 11 8-4 8-11 8-11-8-11-8z" fill="none" stroke="currentColor" stroke-width="2"/>
    <circle cx="12" cy="12" r="3" fill="none" stroke="currentColor" stroke-width="2"/>
  </g>
  
  <!-- Download Icon -->
  <g id="download-icon">
    <path d="M21 15v4a2 2 0 0 1-2 2H5a2 2 0 0 1-2-2v-4" fill="none" stroke="currentColor" stroke-width="2" stroke-linecap="round"/>
    <polyline points="7,10 12,15 17,10" fill="none" stroke="currentColor" stroke-width="2" stroke-linecap="round"/>
    <line x1="12" y1="15" x2="12" y2="3" stroke="currentColor" stroke-width="2" stroke-linecap="round"/>
  </g>
  
  <!-- Send Icon -->
  <g id="send-icon">
    <line x1="22" y1="2" x2="11" y2="13" stroke="currentColor" stroke-width="2" stroke-linecap="round"/>
    <polygon points="22,2 15,22 11,13 2,9" fill="none" stroke="currentColor" stroke-width="2" stroke-linecap="round"/>
  </g>
  
  <!-- ÍCONES DE STATUS -->
  
  <!-- Success Icon -->
  <g id="success-icon">
    <path d="M22 11.08V12a10 10 0 1 1-5.93-9.14" fill="none" stroke="currentColor" stroke-width="2" stroke-linecap="round"/>
    <polyline points="22,4 12,14.01 9,11.01" fill="none" stroke="currentColor" stroke-width="2" stroke-linecap="round"/>
  </g>
  
  <!-- Warning Icon -->
  <g id="warning-icon">
    <path d="M10.29 3.86L1.82 18a2 2 0 0 0 1.71 3h16.94a2 2 0 0 0 1.71-3L13.71 3.86a2 2 0 0 0-3.42 0z" fill="none" stroke="currentColor" stroke-width="2" stroke-linecap="round"/>
    <line x1="12" y1="9" x2="12" y2="13" stroke="currentColor" stroke-width="2" stroke-linecap="round"/>
    <line x1="12" y1="17" x2="12.01" y2="17" stroke="currentColor" stroke-width="2" stroke-linecap="round"/>
  </g>
  
  <!-- Error Icon -->
  <g id="error-icon">
    <circle cx="12" cy="12" r="10" fill="none" stroke="currentColor" stroke-width="2"/>
    <line x1="15" y1="9" x2="9" y2="15" stroke="currentColor" stroke-width="2" stroke-linecap="round"/>
    <line x1="9" y1="9" x2="15" y2="15" stroke="currentColor" stroke-width="2" stroke-linecap="round"/>
  </g>
  
  <!-- Info Icon -->
  <g id="info-icon">
    <circle cx="12" cy="12" r="10" fill="none" stroke="currentColor" stroke-width="2"/>
    <line x1="12" y1="16" x2="12" y2="12" stroke="currentColor" stroke-width="2" stroke-linecap="round"/>
    <line x1="12" y1="8" x2="12.01" y2="8" stroke="currentColor" stroke-width="2" stroke-linecap="round"/>
  </g>
  
  <!-- Loading Spinner Icon -->
  <g id="loading-icon">
    <path d="M21 12a9 9 0 1 1-6.219-8.56" fill="none" stroke="currentColor" stroke-width="2" stroke-linecap="round"/>
  </g>
  
  <!-- ÍCONES ESPECÍFICOS DO DOMÍNIO -->
  
  <!-- Order Status Icons -->
  <g id="pending-icon">
    <circle cx="12" cy="12" r="10" fill="none" stroke="currentColor" stroke-width="2"/>
    <polyline points="12,6 12,12 16,14" fill="none" stroke="currentColor" stroke-width="2" stroke-linecap="round"/>
  </g>
  
  <g id="processing-icon">
    <circle cx="12" cy="12" r="2" fill="currentColor"/>
    <circle cx="12" cy="12" r="7" fill="none" stroke="currentColor" stroke-width="2" stroke-dasharray="4 4" opacity="0.6"/>
  </g>
  
  <g id="completed-icon">
    <circle cx="12" cy="12" r="10" fill="none" stroke="currentColor" stroke-width="2"/>
    <polyline points="8,12 11,15 16,10" fill="none" stroke="currentColor" stroke-width="2" stroke-linecap="round"/>
  </g>
  
  <!-- Event Sourcing Icon -->
  <g id="events-icon">
    <circle cx="5" cy="12" r="2" fill="currentColor"/>
    <circle cx="12" cy="12" r="2" fill="currentColor"/>
    <circle cx="19" cy="12" r="2" fill="currentColor"/>
    <path d="M7 12h3M14 12h3" stroke="currentColor" stroke-width="2" stroke-linecap="round"/>
  </g>
  
  <!-- Analytics Icon -->
  <g id="analytics-icon">
    <polyline points="22,12 18,12 15,21 9,3 6,12 2,12" fill="none" stroke="currentColor" stroke-width="2" stroke-linecap="round"/>
  </g>
  
  <!-- ÍCONES DE INTERFACE -->
  
  <!-- Menu Icon -->
  <g id="menu-icon">
    <line x1="3" y1="6" x2="21" y2="6" stroke="currentColor" stroke-width="2" stroke-linecap="round"/>
    <line x1="3" y1="12" x2="21" y2="12" stroke="currentColor" stroke-width="2" stroke-linecap="round"/>
    <line x1="3" y1="18" x2="21" y2="18" stroke="currentColor" stroke-width="2" stroke-linecap="round"/>
  </g>
  
  <!-- Close Icon -->
  <g id="close-icon">
    <line x1="18" y1="6" x2="6" y2="18" stroke="currentColor" stroke-width="2" stroke-linecap="round"/>
    <line x1="6" y1="6" x2="18" y2="18" stroke="currentColor" stroke-width="2" stroke-linecap="round"/>
  </g>
  
  <!-- Arrow Icons -->
  <g id="arrow-left-icon">
    <line x1="19" y1="12" x2="5" y2="12" stroke="currentColor" stroke-width="2" stroke-linecap="round"/>
    <polyline points="12,19 5,12 12,5" fill="none" stroke="currentColor" stroke-width="2" stroke-linecap="round"/>
  </g>
  
  <g id="arrow-right-icon">
    <line x1="5" y1="12" x2="19" y2="12" stroke="currentColor" stroke-width="2" stroke-linecap="round"/>
    <polyline points="12,5 19,12 12,19" fill="none" stroke="currentColor" stroke-width="2" stroke-linecap="round"/>
  </g>
  
  <g id="arrow-up-icon">
    <line x1="12" y1="19" x2="12" y2="5" stroke="currentColor" stroke-width="2" stroke-linecap="round"/>
    <polyline points="5,12 12,5 19,12" fill="none" stroke="currentColor" stroke-width="2" stroke-linecap="round"/>
  </g>
  
  <g id="arrow-down-icon">
    <line x1="12" y1="5" x2="12" y2="19" stroke="currentColor" stroke-width="2" stroke-linecap="round"/>
    <polyline points="19,12 12,19 5,12" fill="none" stroke="currentColor" stroke-width="2" stroke-linecap="round"/>
  </g>
  
  <!-- Chevron Icons -->
  <g id="chevron-down-icon">
    <polyline points="6,9 12,15 18,9" fill="none" stroke="currentColor" stroke-width="2" stroke-linecap="round"/>
  </g>
  
  <g id="chevron-up-icon">
    <polyline points="18,15 12,9 6,15" fill="none" stroke="currentColor" stroke-width="2" stroke-linecap="round"/>
  </g>
  
  <!-- ÍCONES DE DARK MODE -->
  
  <!-- Sun Icon -->
  <g id="sun-icon">
    <circle cx="12" cy="12" r="5" fill="none" stroke="currentColor" stroke-width="2"/>
    <line x1="12" y1="1" x2="12" y2="3" stroke="currentColor" stroke-width="2" stroke-linecap="round"/>
    <line x1="12" y1="21" x2="12" y2="23" stroke="currentColor" stroke-width="2" stroke-linecap="round"/>
    <line x1="4.22" y1="4.22" x2="5.64" y2="5.64" stroke="currentColor" stroke-width="2" stroke-linecap="round"/>
    <line x1="18.36" y1="18.36" x2="19.78" y2="19.78" stroke="currentColor" stroke-width="2" stroke-linecap="round"/>
    <line x1="1" y1="12" x2="3" y2="12" stroke="currentColor" stroke-width="2" stroke-linecap="round"/>
    <line x1="21" y1="12" x2="23" y2="12" stroke="currentColor" stroke-width="2" stroke-linecap="round"/>
    <line x1="4.22" y1="19.78" x2="5.64" y2="18.36" stroke="currentColor" stroke-width="2" stroke-linecap="round"/>
    <line x1="18.36" y1="5.64" x2="19.78" y2="4.22" stroke="currentColor" stroke-width="2" stroke-linecap="round"/>
  </g>
  
  <!-- Moon Icon -->
  <g id="moon-icon">
    <path d="M21 12.79A9 9 0 1 1 11.21 3 7 7 0 0 0 21 12.79z" fill="none" stroke="currentColor" stroke-width="2" stroke-linecap="round"/>
  </g>
  
</svg>